<?xml version="1.0" encoding="UTF-8"?>
<!DOCTYPE svg PUBLIC "-//W3C//DTD SVG 1.1//EN" "http://www.w3.org/Graphics/SVG/1.1/DTD/svg11.dtd">
<svg version="1.1" xmlns="http://www.w3.org/2000/svg" xmlns:xlink="http://www.w3.org/1999/xlink" x="0" y="0" width="417" height="558" viewBox="0, 0, 417, 558">
  <defs>
    <clipPath id="Clip_1">
      <path d="M149.502,307.661 L139.366,359.771 L62.559,402.935 C62.559,402.935 92.989,478.843 224.873,474.38 C356.739,469.917 361.084,396.978 361.084,396.978 L292.979,358.277 L277.041,307.661 z"/>
    </clipPath>
    <clipPath id="Clip_2">
      <path d="M350.772,42.027 L6.387,145.054 L5,300.376 L411.631,341.587 L411.631,175.171 L350.772,42.027 z"/>
    </clipPath>
  </defs>
  <g id="Layer_1">
    <path d="M196.104,468.472 L194.043,526.509 C194.043,526.509 207.364,527.398 209.395,533.55 C211.436,539.712 182.813,557.3 173.594,552.027 C164.395,546.734 154.17,467.593 154.17,467.593" fill="#FFFFFE"/>
    <path d="M196.104,468.472 L194.043,526.509 C194.043,526.509 207.364,527.398 209.395,533.55 C211.436,539.712 182.813,557.3 173.594,552.027 C164.395,546.734 154.17,467.593 154.17,467.593" fill-opacity="0" stroke="#3C2C1E" stroke-width="10" stroke-linecap="round" stroke-linejoin="round"/>
    <path d="M231.534,468.472 L233.575,526.509 C233.575,526.509 220.274,527.398 218.223,533.55 C216.182,539.712 244.825,557.3 254.043,552.027 C263.243,546.734 273.467,467.593 273.467,467.593" fill="#FFFFFE"/>
    <path d="M231.534,468.472 L233.575,526.509 C233.575,526.509 220.274,527.398 218.223,533.55 C216.182,539.712 244.825,557.3 254.043,552.027 C263.243,546.734 273.467,467.593 273.467,467.593" fill-opacity="0" stroke="#3C2C1E" stroke-width="10" stroke-linecap="round" stroke-linejoin="round"/>
    <path d="M143.496,323.169 L71.778,354.195 C71.778,354.195 56.26,340.62 48.516,343.531 C40.762,346.431 46.563,388.12 67.901,391.04 C89.209,393.931 146.397,362.915 146.397,362.915" fill="#FFFFFE"/>
    <path d="M143.496,323.169 L71.778,354.195 C71.778,354.195 56.26,340.62 48.516,343.531 C40.762,346.431 46.563,388.12 67.901,391.04 C89.209,393.931 146.397,362.915 146.397,362.915" fill-opacity="0" stroke="#3C2C1E" stroke-width="10" stroke-linecap="round" stroke-linejoin="round"/>
    <path d="M291.426,323.169 L363.145,354.195 C363.145,354.195 378.662,340.62 386.416,343.531 C394.16,346.431 388.34,388.12 367.032,391.04 C345.694,393.931 288.506,362.915 288.506,362.915" fill="#FFFFFE"/>
    <path d="M291.426,323.169 L363.145,354.195 C363.145,354.195 378.662,340.62 386.416,343.531 C394.16,346.431 388.34,388.12 367.032,391.04 C345.694,393.931 288.506,362.915 288.506,362.915" fill-opacity="0" stroke="#3C2C1E" stroke-width="10" stroke-linecap="round" stroke-linejoin="round"/>
    <path d="M149.502,307.661 L139.366,359.771 L62.559,402.935 C62.559,402.935 92.989,478.843 224.873,474.38 C356.739,469.917 361.084,396.978 361.084,396.978 L292.979,358.277 L277.041,307.661" fill="#EB929C"/>
    <path d="M149.502,307.661 L139.366,359.771 L62.559,402.935 C62.559,402.935 92.989,478.843 224.873,474.38 C356.739,469.917 361.084,396.978 361.084,396.978 L292.979,358.277 L277.041,307.661" fill-opacity="0" stroke="#3C2C1E" stroke-width="10" stroke-linecap="round" stroke-linejoin="round"/>
    <g clip-path="url(#Clip_1)">
      <path d="M135.752,344.986 C135.752,354.898 127.705,362.915 117.813,362.915 C107.901,362.915 99.883,354.898 99.883,344.986 C99.883,335.093 107.901,327.046 117.813,327.046 C127.705,327.046 135.752,335.093 135.752,344.986" fill="#FFFFFE"/>
      <path d="M204.571,344.986 C204.571,354.898 196.524,362.915 186.631,362.915 C176.719,362.915 168.702,354.898 168.702,344.986 C168.702,335.093 176.719,327.046 186.631,327.046 C196.524,327.046 204.571,335.093 204.571,344.986" fill="#FFFFFE"/>
      <path d="M273.389,344.986 C273.389,354.898 265.362,362.915 255.45,362.915 C245.557,362.915 237.52,354.898 237.52,344.986 C237.52,335.093 245.557,327.046 255.45,327.046 C265.362,327.046 273.389,335.093 273.389,344.986" fill="#FFFFFE"/>
      <path d="M342.207,344.986 C342.207,354.898 334.18,362.915 324.268,362.915 C314.375,362.915 306.338,354.898 306.338,344.986 C306.338,335.093 314.375,327.046 324.268,327.046 C334.18,327.046 342.207,335.093 342.207,344.986" fill="#FFFFFE"/>
      <path d="M135.752,449.673 C135.752,459.576 127.705,467.603 117.813,467.603 C107.901,467.603 99.883,459.576 99.883,449.673 C99.883,439.771 107.901,431.734 117.813,431.734 C127.705,431.734 135.752,439.771 135.752,449.673" fill="#FFFFFE"/>
      <path d="M204.571,449.673 C204.571,459.576 196.524,467.603 186.631,467.603 C176.719,467.603 168.702,459.576 168.702,449.673 C168.702,439.771 176.719,431.734 186.631,431.734 C196.524,431.734 204.571,439.771 204.571,449.673" fill="#FFFFFE"/>
      <path d="M273.389,449.673 C273.389,459.576 265.362,467.603 255.45,467.603 C245.557,467.603 237.52,459.576 237.52,449.673 C237.52,439.771 245.557,431.734 255.45,431.734 C265.362,431.734 273.389,439.771 273.389,449.673" fill="#FFFFFE"/>
      <path d="M342.207,449.673 C342.207,459.576 334.18,467.603 324.268,467.603 C314.375,467.603 306.338,459.576 306.338,449.673 C306.338,439.771 314.375,431.734 324.268,431.734 C334.18,431.734 342.207,439.771 342.207,449.673" fill="#FFFFFE"/>
      <path d="M102.295,398.765 C102.295,408.677 94.248,416.714 84.366,416.714 C74.453,416.714 66.426,408.677 66.426,398.765 C66.426,388.872 74.453,380.855 84.366,380.855 C94.248,380.855 102.295,388.872 102.295,398.765" fill="#FFFFFE"/>
      <path d="M171.114,398.765 C171.114,408.677 163.096,416.714 153.184,416.714 C143.291,416.714 135.244,408.677 135.244,398.765 C135.244,388.872 143.291,380.855 153.184,380.855 C163.096,380.855 171.114,388.872 171.114,398.765" fill="#FFFFFE"/>
      <path d="M239.932,398.765 C239.932,408.677 231.914,416.714 222.002,416.714 C212.11,416.714 204.063,408.677 204.063,398.765 C204.063,388.872 212.11,380.855 222.002,380.855 C231.914,380.855 239.932,388.872 239.932,398.765" fill="#FFFFFE"/>
      <path d="M308.75,398.765 C308.75,408.677 300.733,416.714 290.821,416.714 C280.928,416.714 272.881,408.677 272.881,398.765 C272.881,388.872 280.928,380.855 290.821,380.855 C300.733,380.855 308.75,388.872 308.75,398.765" fill="#FFFFFE"/>
      <path d="M377.569,398.765 C377.569,408.677 369.551,416.714 359.659,416.714 C349.746,416.714 341.7,408.677 341.7,398.765 C341.7,388.872 349.746,380.855 359.659,380.855 C369.551,380.855 377.569,388.872 377.569,398.765" fill="#FFFFFE"/>
    </g>
    <path d="M149.502,307.661 L139.366,359.771 L62.559,402.935 C62.559,402.935 92.989,478.843 224.873,474.38 C356.739,469.917 361.084,396.978 361.084,396.978 L292.979,358.277 L277.041,307.661" fill-opacity="0" stroke="#3C2C1E" stroke-width="10" stroke-linecap="round" stroke-linejoin="round"/>
    <path d="M350.772,42.027 L6.387,145.054 L5,300.376 L411.631,341.587 L411.631,175.171 L350.772,42.027" fill="#FFFFFE"/>
    <path d="M350.772,42.027 L6.387,145.054 L5,300.376 L411.631,341.587 L411.631,175.171 L350.772,42.027 z" fill-opacity="0" stroke="#3C2C1E" stroke-width="10" stroke-linecap="round" stroke-linejoin="round"/>
    <g clip-path="url(#Clip_2)">
      <path d="M-5.039,155.747 L424.424,180.718 L422.344,350.708 L-7.109,324.536 L-5.039,155.747" fill="#FBE2C8"/>
      <path d="M431.963,285.269 L-19.394,252.124 L-16.533,201.001 L434.825,234.146 L431.963,285.269" fill="#F0B0B1"/>
      <path d="M435.078,244.849 L-16.269,211.714 L-15.019,189.077 L436.338,222.202 L435.078,244.849" fill="#FFFFFE"/>
      <path d="M435.078,304.283 L-16.269,271.148 L-15.019,248.511 L436.338,281.646 L435.078,304.283" fill="#FFFFFE"/>
    </g>
    <path d="M350.772,42.027 L6.387,145.054 L5,300.376 L411.631,341.587 L411.631,175.171 L350.772,42.027 z" fill-opacity="0" stroke="#3C2C1E" stroke-width="10" stroke-linecap="round" stroke-linejoin="round"/>
    <path d="M18.838,156.158 L400.577,178.335" fill="#FFFFFE"/>
    <path d="M18.838,156.158 L400.577,178.335" fill-opacity="0" stroke="#3C2C1E" stroke-width="10" stroke-linecap="round" stroke-linejoin="round"/>
    <path d="M288.916,80.454 C288.916,117.876 261.094,140.679 226.768,140.679 C192.432,140.679 164.6,117.876 164.6,80.454 C164.6,43.003 192.432,5.142 226.768,5.142 C261.094,5.142 288.916,43.003 288.916,80.454" fill="#E05A5C"/>
    <path d="M288.916,80.454 C288.916,117.876 261.094,140.679 226.768,140.679 C192.432,140.679 164.6,117.876 164.6,80.454 C164.6,43.003 192.432,5.142 226.768,5.142 C261.094,5.142 288.916,43.003 288.916,80.454 z" fill-opacity="0" stroke="#3C2C1E" stroke-width="10" stroke-linecap="round" stroke-linejoin="round"/>
    <path d="M221.465,52.857 C214.141,63.951 203.037,69.517 196.66,65.318 C190.274,61.109 191.055,48.706 198.36,37.622 C205.684,26.519 216.787,20.952 223.164,25.152 C229.551,29.37 228.78,41.763 221.465,52.857" fill="#FFFFFE"/>
    <path d="M182.325,255.738 C182.325,279.468 163.096,298.706 139.356,298.706 C115.625,298.706 96.387,279.468 96.387,255.738 C96.387,231.997 115.625,212.759 139.356,212.759 C163.096,212.759 182.325,231.997 182.325,255.738" fill="#E77B92"/>
    <path d="M129.903,229.868 C131.348,233.081 128.379,237.515 123.311,239.79 C118.223,242.066 112.94,241.314 111.494,238.101 C110.069,234.898 113.018,230.445 118.096,228.179 C123.184,225.904 128.457,226.656 129.903,229.868" fill="#FFFFFE"/>
    <path d="M332.91,255.738 C332.91,279.468 313.672,298.706 289.932,298.706 C266.202,298.706 246.973,279.468 246.973,255.738 C246.973,231.997 266.202,212.759 289.932,212.759 C313.672,212.759 332.91,231.997 332.91,255.738" fill="#E77B92"/>
    <path d="M282.686,229.868 C284.141,233.081 281.172,237.515 276.104,239.79 C271.016,242.066 265.733,241.314 264.287,238.101 C262.862,234.898 265.801,230.445 270.889,228.179 C275.967,225.904 281.26,226.656 282.686,229.868" fill="#FFFFFE"/>
    <path d="M186.485,221.245 C186.485,232.964 180.44,242.466 172.959,242.466 C165.489,242.466 159.424,232.964 159.424,221.245 C159.424,209.527 165.489,200.025 172.959,200.025 C180.44,200.025 186.485,209.527 186.485,221.245" fill="#3C2C1E"/>
    <path d="M261.827,221.245 C261.827,232.964 255.772,242.466 248.291,242.466 C240.821,242.466 234.766,232.964 234.766,221.245 C234.766,209.527 240.821,200.025 248.291,200.025 C255.772,200.025 261.827,209.527 261.827,221.245" fill="#3C2C1E"/>
    <path d="M194.59,257.974 L212.979,287.398 L231.368,256.509 M157.09,183.687 C157.09,183.687 156.338,202.076 169.58,205.747 M235.049,183.687 C235.049,183.687 234.307,202.076 247.549,205.747" fill-opacity="0" stroke="#3C2C1E" stroke-width="10" stroke-linecap="round" stroke-linejoin="round"/>
  </g>
</svg>
